<?xml version="1.0" encoding="UTF-8"?>
<svg width="290px" height="190px" viewBox="0 0 290 190" version="1.1" xmlns="http://www.w3.org/2000/svg" xmlns:xlink="http://www.w3.org/1999/xlink">
    <title>library-empty-stars-aqua</title>
    <defs>
        <rect id="path-1" x="19" y="0" width="170" height="56" rx="11.0869565"></rect>
        <filter x="-1.2%" y="-1.8%" width="102.4%" height="107.1%" filterUnits="objectBoundingBox" id="filter-2">
            <feOffset dx="0" dy="1" in="SourceAlpha" result="shadowOffsetOuter1"></feOffset>
            <feGaussianBlur stdDeviation="0.5" in="shadowOffsetOuter1" result="shadowBlurOuter1"></feGaussianBlur>
            <feColorMatrix values="0 0 0 0 0   0 0 0 0 0   0 0 0 0 0  0 0 0 0.163980551 0" type="matrix" in="shadowBlurOuter1"></feColorMatrix>
        </filter>
        <rect id="path-3" x="19" y="126" width="170" height="56" rx="11.0869565"></rect>
        <filter x="-1.2%" y="-1.8%" width="102.4%" height="107.1%" filterUnits="objectBoundingBox" id="filter-4">
            <feOffset dx="0" dy="1" in="SourceAlpha" result="shadowOffsetOuter1"></feOffset>
            <feGaussianBlur stdDeviation="0.5" in="shadowOffsetOuter1" result="shadowBlurOuter1"></feGaussianBlur>
            <feColorMatrix values="0 0 0 0 0   0 0 0 0 0   0 0 0 0 0  0 0 0 0.163980551 0" type="matrix" in="shadowBlurOuter1"></feColorMatrix>
        </filter>
        <filter x="-14.1%" y="-28.9%" width="128.2%" height="157.8%" filterUnits="objectBoundingBox" id="filter-5">
            <feGaussianBlur stdDeviation="8" in="SourceGraphic"></feGaussianBlur>
        </filter>
        <rect id="path-6" x="0" y="55" width="200" height="80" rx="10"></rect>
        <filter x="-1.0%" y="-1.2%" width="102.0%" height="105.0%" filterUnits="objectBoundingBox" id="filter-7">
            <feOffset dx="0" dy="1" in="SourceAlpha" result="shadowOffsetOuter1"></feOffset>
            <feGaussianBlur stdDeviation="0.5" in="shadowOffsetOuter1" result="shadowBlurOuter1"></feGaussianBlur>
            <feColorMatrix values="0 0 0 0 0   0 0 0 0 0   0 0 0 0 0  0 0 0 0.163980551 0" type="matrix" in="shadowBlurOuter1"></feColorMatrix>
        </filter>
    </defs>
    <g id="library-empty-stars-aqua" stroke="none" stroke-width="1" fill="none" fill-rule="evenodd">
        <g id="Group" transform="translate(45.000000, 3.000000)">
            <g id="Rectangle">
                <use fill="black" fill-opacity="1" filter="url(#filter-2)" xlink:href="#path-1"></use>
                <use fill="#FFFFFF" fill-rule="evenodd" xlink:href="#path-1"></use>
            </g>
            <g id="Rectangle">
                <use fill="black" fill-opacity="1" filter="url(#filter-4)" xlink:href="#path-3"></use>
                <use fill="#FFFFFF" fill-rule="evenodd" xlink:href="#path-3"></use>
            </g>
            <rect id="Rectangle" fill-opacity="0.0850087413" fill="#000000" filter="url(#filter-5)" x="15" y="55" width="170" height="83"></rect>
            <g id="Rectangle">
                <use fill="black" fill-opacity="1" filter="url(#filter-7)" xlink:href="#path-6"></use>
                <use fill="#FFFFFF" fill-rule="evenodd" xlink:href="#path-6"></use>
            </g>
        </g>
        <path d="M247,181.272727 C248.104569,181.272727 249,182.168158 249,183.272727 C249,184.377297 248.104569,185.272727 247,185.272727 C245.895431,185.272727 245,184.377297 245,183.272727 C245,182.168158 245.895431,181.272727 247,181.272727 Z M48,177.272727 C50.209139,177.272727 52,179.063588 52,181.272727 C52,183.481866 50.209139,185.272727 48,185.272727 C45.790861,185.272727 44,183.481866 44,181.272727 C44,179.063588 45.790861,177.272727 48,177.272727 Z M91,143 C99.2842712,143 106,149.939586 106,158.5 C106,167.060414 99.2842712,174 91,174 C82.7157288,174 76,167.060414 76,158.5 C76,149.939586 82.7157288,143 91,143 Z M148.4,160.101352 C149.808326,160.101352 150.95,161.286807 150.95,162.749141 C150.95,164.159248 149.888418,165.311901 148.549832,165.392435 L148.4,165.39693 L128,165.39693 C126.591674,165.39693 125.45,164.211474 125.45,162.749141 C125.45,161.339034 126.511582,160.186381 127.850168,160.105847 L128,160.101352 L148.4,160.101352 Z M90.6460252,152.608953 L89.1139474,155.816868 L85.6873989,156.331695 L85.6210578,156.347465 C85.347014,156.438151 85.2510819,156.808312 85.4686304,157.027438 L87.9478947,159.523816 L87.3626572,163.05096 L87.3567149,163.116449 C87.3522613,163.416224 87.6651166,163.627786 87.9354004,163.480953 L90.9992105,161.815368 L94.0645996,163.480953 L94.123038,163.50703 C94.3975673,163.604043 94.6889624,163.361958 94.6373428,163.05096 L94.0513158,159.523816 L96.5313696,157.027438 L96.57607,156.974386 C96.7461917,156.734571 96.6132458,156.376837 96.3126011,156.331695 L92.8852632,155.816868 L91.3539748,152.608953 C91.2091799,152.305787 90.7908201,152.305787 90.6460252,152.608953 Z M91,153.711316 L92.2701687,156.370564 L92.3108154,156.438145 C92.3728216,156.521763 92.4645251,156.578255 92.567381,156.593699 L95.4068421,157.019342 L93.3523884,159.090237 L93.3027484,159.151067 C93.2449497,159.237843 93.2212935,159.345423 93.2388634,159.451277 L93.7236842,162.373368 L91.1836873,160.994223 L91.1123614,160.964236 C91.0146336,160.934249 90.9083098,160.944245 90.8163127,160.994223 L88.2755263,162.373368 L88.7611366,159.451277 L88.7666948,159.371915 C88.7640944,159.266606 88.7220388,159.165204 88.6476116,159.090237 L86.5923684,157.019342 L89.432619,156.593699 C89.5611888,156.574394 89.6723331,156.490951 89.7298313,156.370564 L91,153.711316 Z M185.4,149.83114 C186.808326,149.83114 187.95,151.016596 187.95,152.478929 C187.95,153.889037 186.888418,155.04169 185.549832,155.122223 L185.4,155.126718 L128,155.126718 C126.591674,155.126718 125.45,153.941263 125.45,152.478929 C125.45,151.068822 126.511582,149.916169 127.850168,149.835635 L128,149.83114 L185.4,149.83114 Z M30,121.272727 C31.1045695,121.272727 32,122.168158 32,123.272727 C32,124.377297 31.1045695,125.272727 30,125.272727 C28.8954305,125.272727 28,124.377297 28,123.272727 C28,122.168158 28.8954305,121.272727 30,121.272727 Z M273.5,116.272727 C274.880712,116.272727 276,117.392015 276,118.772727 C276,120.153439 274.880712,121.272727 273.5,121.272727 C272.119288,121.272727 271,120.153439 271,118.772727 C271,117.392015 272.119288,116.272727 273.5,116.272727 Z M143,100 C144.656854,100 146,101.343146 146,103 C146,104.597681 144.75108,105.903661 143.176273,105.994907 L143,106 L119,106 C117.343146,106 116,104.656854 116,103 C116,101.402319 117.24892,100.096339 118.823727,100.005093 L119,100 L143,100 Z M207,90 C208.656854,90 210,91.3431458 210,93 C210,94.5976809 208.75108,95.9036609 207.176273,95.9949073 L207,96 L119,96 C117.343146,96 116,94.6568542 116,93 C116,91.4023191 117.24892,90.0963391 118.823727,90.0050927 L119,90 L207,90 Z M31.5,60.2727273 C32.8807119,60.2727273 34,61.3920154 34,62.7727273 C34,64.1534391 32.8807119,65.2727273 31.5,65.2727273 C30.1192881,65.2727273 29,64.1534391 29,62.7727273 C29,61.3920154 30.1192881,60.2727273 31.5,60.2727273 Z M91,22 C99.2842712,22 106,28.9395864 106,37.5 C106,46.0604136 99.2842712,53 91,53 C82.7157288,53 76,46.0604136 76,37.5 C76,28.9395864 82.7157288,22 91,22 Z M283,47.2727273 C284.104569,47.2727273 285,48.1681578 285,49.2727273 C285,50.3772968 284.104569,51.2727273 283,51.2727273 C281.895431,51.2727273 281,50.3772968 281,49.2727273 C281,48.1681578 281.895431,47.2727273 283,47.2727273 Z M148.4,39.8837719 C149.808326,39.8837719 150.95,41.0177875 150.95,42.4166667 C150.95,43.7655858 149.888418,44.8682225 148.549832,44.9452617 L148.4,44.9495614 L128,44.9495614 C126.591674,44.9495614 125.45,43.8155458 125.45,42.4166667 C125.45,41.0677475 126.511582,39.9651109 127.850168,39.8880717 L128,39.8837719 L148.4,39.8837719 Z M90.6460252,31.6089535 L89.1139474,34.8168684 L85.6873989,35.3316948 L85.6210578,35.3474653 C85.347014,35.4381513 85.2510819,35.8083122 85.4686304,36.0274382 L87.9478947,38.5238158 L87.3626572,42.0509602 L87.3567149,42.1164493 C87.3522613,42.4162237 87.6651166,42.6277864 87.9354004,42.4809533 L90.9992105,40.8153684 L94.0645996,42.4809533 L94.123038,42.5070303 C94.3975673,42.6040426 94.6889624,42.3619578 94.6373428,42.0509602 L94.0513158,38.5238158 L96.5313696,36.0274382 L96.57607,35.9743855 C96.7461917,35.7345708 96.6132458,35.3768373 96.3126011,35.3316948 L92.8852632,34.8168684 L91.3539748,31.6089535 C91.2091799,31.3057874 90.7908201,31.3057874 90.6460252,31.6089535 Z M91,32.7113158 L92.2701687,35.3705638 L92.3108154,35.4381454 C92.3728216,35.5217629 92.4645251,35.5782551 92.567381,35.5936991 L95.4068421,36.0193421 L93.3523884,38.090237 L93.3027484,38.1510667 C93.2449497,38.2378431 93.2212935,38.3454225 93.2388634,38.4512774 L93.7236842,41.3733684 L91.1836873,39.9942227 L91.1123614,39.964236 C91.0146336,39.9342492 90.9083098,39.9442448 90.8163127,39.9942227 L88.2755263,41.3733684 L88.7611366,38.4512774 L88.7666948,38.3719149 C88.7640944,38.2666057 88.7220388,38.1652038 88.6476116,38.090237 L86.5923684,36.0193421 L89.432619,35.5936991 C89.5611888,35.574394 89.6723331,35.4909513 89.7298313,35.3705638 L91,32.7113158 Z M257,27.2727273 C259.209139,27.2727273 261,29.0635883 261,31.2727273 C261,33.4818663 259.209139,35.2727273 257,35.2727273 C254.790861,35.2727273 253,33.4818663 253,31.2727273 C253,29.0635883 254.790861,27.2727273 257,27.2727273 Z M185.4,30.0592105 C186.808326,30.0592105 187.95,31.1932261 187.95,32.5921053 C187.95,33.9410244 186.888418,35.043661 185.549832,35.1207002 L185.4,35.125 L128,35.125 C126.591674,35.125 125.45,33.9909844 125.45,32.5921053 C125.45,31.2431861 126.511582,30.1405495 127.850168,30.0635103 L128,30.0592105 L185.4,30.0592105 Z M58,7.27272728 C59.1045695,7.27272728 60,8.16815778 60,9.27272728 C60,10.3772968 59.1045695,11.2727273 58,11.2727273 C56.8954305,11.2727273 56,10.3772968 56,9.27272728 C56,8.16815778 56.8954305,7.27272728 58,7.27272728 Z" id="Combined-Shape" fill="#DEE3E9" fill-rule="nonzero"></path>
        <path d="M260,139.272727 L261.763356,142.845676 L265.706339,143.418625 L262.85317,146.199778 L263.526712,150.126829 L260,148.272727 L256.473288,150.126829 L257.14683,146.199778 L254.293661,143.418625 L258.236644,142.845676 L260,139.272727 Z M84,79 C94.4934102,79 103,87.5065898 103,98 C103,108.49341 94.4934102,117 84,117 C73.5065898,117 65,108.49341 65,98 C65,87.5065898 73.5065898,79 84,79 Z M83.551632,90.7787171 L81.611,94.711 L77.2707052,95.3420775 L77.1866733,95.3614091 C76.839551,95.4725725 76.7180371,95.9263182 76.9935985,96.1949242 L80.134,99.255 L79.3926991,103.578596 L79.3851722,103.658873 C79.3795309,104.026339 79.7758144,104.285674 80.1181738,104.105685 L83.999,102.064 L87.8818262,104.105685 L87.9558482,104.13765 C88.3035853,104.256568 88.6726858,103.959819 88.6073009,103.578596 L87.865,99.255 L91.0064015,96.1949242 L91.0630219,96.1298919 C91.2785095,95.8359255 91.1101114,95.3974134 90.7292948,95.3420775 L86.388,94.711 L84.448368,90.7787171 C84.2649612,90.4070943 83.7350388,90.4070943 83.551632,90.7787171 Z M84,92.13 L85.6088803,95.3897234 L85.6603661,95.4725653 C85.7389074,95.5750642 85.8550652,95.6443126 85.9853492,95.663244 L89.582,96.185 L86.979692,98.7235163 L86.9168146,98.7980818 C86.843603,98.9044528 86.8136385,99.0363244 86.8358936,99.166082 L87.45,102.748 L84.2326706,101.057434 L84.1423244,101.020676 C84.0185359,100.983918 83.883859,100.996171 83.7673294,101.057434 L80.549,102.748 L81.1641064,99.166082 L81.1711467,99.0687989 C81.1678529,98.9397102 81.1145825,98.8154112 81.020308,98.7235163 L78.417,96.185 L82.0146508,95.663244 C82.1775059,95.6395798 82.3182886,95.5372951 82.3911197,95.3897234 L84,92.13 Z M274,94.2727273 C275.104569,94.2727273 276,95.1681578 276,96.2727273 C276,97.3772968 275.104569,98.2727273 274,98.2727273 C272.895431,98.2727273 272,97.3772968 272,96.2727273 C272,95.1681578 272.895431,94.2727273 274,94.2727273 Z M16.5,80.2727273 C17.3284271,80.2727273 18,80.9443002 18,81.7727273 C18,82.6011544 17.3284271,83.2727273 16.5,83.2727273 C15.6715729,83.2727273 15,82.6011544 15,81.7727273 C15,80.9443002 15.6715729,80.2727273 16.5,80.2727273 Z M39,31.2727273 L40.4694631,34.2501848 L43.7552826,34.7276423 L41.3776413,37.0452698 L41.9389263,40.3178122 L39,38.7727273 L36.0610737,40.3178122 L36.6223587,37.0452698 L34.2447174,34.7276423 L37.5305369,34.2501848 L39,31.2727273 Z M246.5,20.2727273 C247.880712,20.2727273 249,21.3920154 249,22.7727273 C249,24.1534391 247.880712,25.2727273 246.5,25.2727273 C245.119288,25.2727273 244,24.1534391 244,22.7727273 C244,21.3920154 245.119288,20.2727273 246.5,20.2727273 Z" id="Combined-Shape" fill="#FEC000" fill-rule="nonzero"></path>
    </g>
</svg>