<?xml version="1.0" encoding="UTF-8"?>
<svg width="60px" height="60px" viewBox="0 0 60 60" version="1.1" xmlns="http://www.w3.org/2000/svg" xmlns:xlink="http://www.w3.org/1999/xlink">
    <!-- Generator: Sketch 61.2 (89653) - https://sketch.com -->
    <title>pricing-pro-plan-aqua</title>
    <desc>Created with Sketch.</desc>
    <g id="pricing-pro-plan-aqua" stroke="none" stroke-width="1" fill="none" fill-rule="evenodd">
        <g id="Group" transform="translate(3.000000, 6.000000)">
            <path d="M27,1 L27,45 C26.7912599,45 26.2492103,45.5223108 26,45 C25.8867868,44.7627207 25.7711768,44.474415 25.6539091,44.1399892 L21,46 L21,43 L24.629658,40.2781198 C23.7820598,36.3661046 22.9564056,30.8686125 22.4085133,25.4838232 L2,32 L3,28 L21.8431103,18.0669795 C21.6921146,14.7998711 21.7190473,11.9425061 22,10 C23.2270862,1.51593137 26.7823892,1.02256344 26.9904631,1.00088095 L27,1 Z M50.1525974,40 C50.908179,40 51.5332787,40.632019 51.6373694,41.4542486 L51.7854545,41.4545455 C52.4813333,41.4545455 53.0454545,42.0186667 53.0454545,42.7145455 L53.0454545,42.74 C53.0454545,43.4358788 52.4813333,44 51.7854545,44 L48.3054545,44 C47.6095758,44 47.0454545,43.4358788 47.0454545,42.74 L47.0454545,42.7145455 C47.0454545,42.0186667 47.6095758,41.4545455 48.3054545,41.4545455 L48.6678254,41.4542486 C48.7719161,40.632019 49.3970158,40 50.1525974,40 Z M8.5,6 C10.3779112,6 11.9103917,7.47896487 11.9960145,9.33492535 C13.1806363,9.89584052 14,11.1022339 14,12.5 C14,14.4329966 12.4329966,16 10.5,16 L10.5,16 L3.5,16 C1.56700338,16 0,14.4329966 0,12.5 C0,10.5670034 1.56700338,9 3.5,9 L3.5,9 L5.03543731,9.00004975 C5.27803074,7.30387842 6.73674681,6 8.5,6 Z M41.7857143,0 C43.4425685,0 44.7857143,1.30244433 44.7857143,2.90909083 C44.7857143,3.16026468 44.7528873,3.40400371 44.6911666,3.63649376 L44.6911666,3.63649376 L45.8181818,3.63636354 C47.0231667,3.63636354 48,4.61319684 48,5.81818177 C48,7.02316671 47.0231667,8 45.8181818,8 L45.8181818,8 L38.1818182,8 C36.9768333,8 36,7.02316671 36,5.81818177 C36,4.61319684 36.9768333,3.63636354 38.1818182,3.63636354 L38.1818182,3.63636354 L38.880262,3.63649376 C38.8185413,3.40400371 38.7857143,3.16026468 38.7857143,2.90909083 C38.7857143,1.30244433 40.12886,0 41.7857143,0 Z" id="Combined-Shape" fill="#EBF7FF"></path>
            <path d="M28.9233399,0.8613112 C31.5450702,3.953532 32.8274794,8.06270624 32.8274794,13.0946869 C32.8274794,14.1538164 32.7445139,15.5866574 32.6042524,17.2607614 C32.6591022,17.2835301 32.7133765,17.309474 32.766918,17.3385224 L36.597038,19.4153825 C36.9500648,19.5539837 37.2,19.8978041 37.2,20.3 C37.2,20.8246705 36.7746705,21.25 36.25,21.25 C36.0120001,21.25 35.7944415,21.1624803 35.6277522,21.0178689 L32.4239965,19.2352808 C32.3018735,20.4840999 32.1576921,21.8215846 31.9995279,23.2060666 L32,25 L51,31 L50,29 L41.1220832,24.0675519 L41.1344988,24.0481065 C40.8730275,23.8788728 40.7,23.5846428 40.7,23.25 C40.7,22.7253295 41.1253295,22.3 41.65,22.3 C41.8011279,22.3 41.9440136,22.3352892 42.0708664,22.3980768 L42.0750832,22.3885519 L51.7265541,27.624889 C51.9635832,27.7534868 52.1506313,27.956426 52.258238,28.2017433 L53,31 C53.4129797,31.9414943 52.9931097,33.2970893 52,33 L31.5105383,27.3023164 C30.9930913,31.4869062 30.4230183,35.7295707 30,39 L34.2037155,41.7419001 C34.7078036,42.1008466 35.0542607,42.6366875 35.172265,43.2398877 L35,46 C35.3500138,47.7891585 34.1851585,48.4297259 32.4260769,47.8882239 L29,46 C28.5755373,46.3835735 27.7782899,47.3973886 27.0566541,47.3973886 C26.3208058,47.3973886 25.4268771,46.3949988 25,46 L21.5981555,47.8882239 C19.8128799,48.4377893 18.5981456,47.806264 19,46 L19,43 C19.1281353,42.4240546 19.3805762,42.0943641 19.8629639,41.7478223 L24,39 C23.5810106,35.7531099 23.0366862,31.5506242 22.5455929,27.3983112 L2,33 C1.02258333,33.2869992 0.619048336,31.9354896 0.999999966,31 L1.59249114,28.2782216 C1.69776492,28.0197044 1.89037961,27.8052791 2.13753126,27.6714642 L21.4780679,17.1999463 L21.4908084,17.1917485 C21.3616913,15.5466068 21.2858288,14.1384736 21.2858288,13.0946869 C21.2858288,8.05566632 22.5684915,3.94567981 25.1918547,0.859089035 C26.166166,-0.287264063 27.9504247,-0.286201506 28.9233399,0.8613112 Z M27,2 C24.776962,4.615577 23,8.4923823 23,13 C23,17.9372746 24.9203697,32.4101612 26,40 L21,43 L21,46 L26,44 C26.1771957,44.7363219 26.8481254,45 27,45 C27.1500847,45 27.8251114,44.7203788 28,44 L33,46 L33,43 L28,40 C29.0818205,32.4236546 31,17.9417327 31,13 C31,8.49878518 29.2230379,4.62197988 27,2 Z M21.6620031,19.186471 L4,29 L3,31 L22,25 L21.9987306,22.5554203 C21.874085,21.3844593 21.7602979,20.2527764 21.6620031,19.186471 Z M27.1208711,6.00800043 L28.2832627,6.76316156 C28.9848323,7.21894433 29.2548718,8.10469511 28.9459017,8.86668862 L28.8811486,9.00797693 L27.7187569,8.2528158 C27.4220405,8.06005053 27.2025125,7.79037613 27.0713301,7.48568227 C26.9421491,7.79037613 26.7226212,8.06005053 26.4259047,8.2528158 L25.2635131,9.00797693 C24.8577205,8.21709352 25.1159812,7.24743075 25.8613989,6.76316156 L27.0237906,6.00800043 L27.0721514,6.11300043 L27.1208711,6.00800043 Z" id="Combined-Shape" fill="#3D6BAA" fill-rule="nonzero"></path>
        </g>
    </g>
</svg>