<?xml version="1.0" encoding="UTF-8"?>
<svg width="60px" height="60px" viewBox="0 0 60 60" version="1.1" xmlns="http://www.w3.org/2000/svg" xmlns:xlink="http://www.w3.org/1999/xlink">
    <!-- Generator: Sketch 61.2 (89653) - https://sketch.com -->
    <title>pricing-free-plan-aqua</title>
    <desc>Created with Sketch.</desc>
    <g id="pricing-free-plan-aqua" stroke="none" stroke-width="1" fill="none" fill-rule="evenodd">
        <g id="Group" transform="translate(3.000000, 5.000000)">
            <path d="M5.71428571,43 C7.16562767,43 8.37625795,44.0306092 8.65425601,45.3999072 L10.2,45.4 C11.7463973,45.4 13,46.6536027 13,48.2 C13,49.7463973 11.7463973,51 10.2,51 L3.8,51 C2.2536027,51 1,49.7463973 1,48.2 C1,47.0287664 1.71912562,46.0254937 2.73992739,45.6076312 C2.93117391,44.1368592 4.18996596,43 5.71428571,43 Z M27,27 L29,38 C27.72,39.92 27.0544,40.9184 27.0032,40.9952 L27,41 L27,27 Z M26.9283409,7.8900577 L27,8 L27,27 L25.5779332,37.625 L25,39 L13,39 C11.4546765,39 9.37321596,37.3740312 9.94099674,36.1135289 L10,36 L24,10 C24.7709828,8.6963171 26.1231696,6.77389044 26.9283409,7.8900577 Z M45.5,0 C47.2632532,0 48.7219693,1.30387842 48.9645627,3.00004975 L50.5,3 C52.4329966,3 54,4.56700338 54,6.5 C54,8.43299662 52.4329966,10 50.5,10 L43.5,10 C41.5670034,10 40,8.43299662 40,6.5 C40,5.10223393 40.8193637,3.89584052 42.0039855,3.33492535 C42.0896083,1.47896487 43.6220888,0 45.5,0 Z M3.85714286,-4.4408921e-16 C4.89396634,-4.4408921e-16 5.74651816,0.788960832 5.84719624,1.79928044 L6,1.8 C7.1045695,1.8 8,2.6954305 8,3.8 C8,4.8543618 7.18412221,5.71816512 6.14926234,5.79451426 L6,5.8 L2,5.8 C0.8954305,5.8 0,4.9045695 0,3.8 C0,2.6954305 0.8954305,1.8 2,1.8 L1.8665948,1.80430873 C1.96494036,0.791579787 2.81859993,-4.4408921e-16 3.85714286,-4.4408921e-16 Z" id="Combined-Shape" fill="#EBF7FF"></path>
            <path d="M30.666916,9.127713 L44.4922192,34.0224282 C45.9975044,36.7329399 43.9730861,40.0075 40.8253032,40.0075 L38.277,40.007 L38.2775977,39.9725 C37.6547532,39.9725 37.1498379,39.4968025 37.1498379,38.91 C37.1498379,38.3623176 37.5896752,37.9114201 38.1547159,37.8537346 L38.2775977,37.8475 L40.8253032,37.8475 C42.3079744,37.8475 43.2541141,36.3170895 42.552496,35.0537116 L28.7271928,10.1589964 C27.987468,8.8270012 26.012532,8.8270012 25.2728072,10.1589964 L11.447504,35.0537116 C10.7458859,36.3170895 11.6920256,37.8475 13.1746968,37.8475 L23.0507498,37.8475 C24.0334148,37.8475 24.8642913,37.1438752 24.9941585,36.2017313 L27,20.2690361 L29.0058415,36.2017313 C29.1357087,37.1438752 29.9665852,37.8475 30.9492502,37.8475 L33.7665586,37.8475 C34.3894031,37.8475 34.8943184,38.3231975 34.8943184,38.91 C34.8943184,39.4576824 34.4544811,39.9085799 33.8894405,39.9662654 L33.7665586,39.9725 L33.766,40.007 L30.9492502,40.0075 C30.7802903,40.0075 30.6133922,39.9976413 30.4491828,39.9784331 C30.404618,40.0572053 30.3473678,40.1315761 30.2790958,40.1993545 L30.2790958,40.1993545 L27.7861531,42.6742742 C27.3538337,43.1034681 26.6461663,43.1034681 26.2138469,42.6742742 L26.2138469,42.6742742 L23.7209042,40.1993545 C23.6526322,40.1315761 23.595382,40.0572053 23.5491378,39.9783707 C23.3863555,39.9976562 23.219582,40.0075 23.0507498,40.0075 L13.1746968,40.0075 C10.0269139,40.0075 8.00249561,36.7329399 9.50778081,34.0224282 L23.333084,9.127713 C24.9085872,6.29076233 29.0914128,6.29076233 30.666916,9.127713 Z M27.0017347,37.2452438 C26.7492704,37.9770833 26.2911607,38.6096885 25.6982962,39.0841437 L27,40.3775956 L28.3035735,39.0832274 C27.7136945,38.6098593 27.256611,37.9784012 27.0017347,37.2452438 Z" id="Combined-Shape" fill="#3D6BAA" fill-rule="nonzero"></path>
        </g>
    </g>
</svg>