<?xml version="1.0" encoding="UTF-8"?>
<svg width="290px" height="190px" viewBox="0 0 290 190" version="1.1" xmlns="http://www.w3.org/2000/svg" xmlns:xlink="http://www.w3.org/1999/xlink">
    <title>section-all-read-aqua</title>
    <defs>
        <rect id="path-1" x="60" y="119" width="170" height="68" rx="14.6880006"></rect>
        <filter x="-2.9%" y="-5.9%" width="105.9%" height="114.7%" filterUnits="objectBoundingBox" id="filter-2">
            <feOffset dx="0" dy="1" in="SourceAlpha" result="shadowOffsetOuter1"></feOffset>
            <feGaussianBlur stdDeviation="1.5" in="shadowOffsetOuter1" result="shadowBlurOuter1"></feGaussianBlur>
            <feColorMatrix values="0 0 0 0 0   0 0 0 0 0   0 0 0 0 0  0 0 0 0.0950338724 0" type="matrix" in="shadowBlurOuter1"></feColorMatrix>
        </filter>
        <rect id="path-3" x="60" y="3" width="170" height="68" rx="14.6880006"></rect>
        <filter x="-2.9%" y="-5.9%" width="105.9%" height="114.7%" filterUnits="objectBoundingBox" id="filter-4">
            <feOffset dx="0" dy="1" in="SourceAlpha" result="shadowOffsetOuter1"></feOffset>
            <feGaussianBlur stdDeviation="1.5" in="shadowOffsetOuter1" result="shadowBlurOuter1"></feGaussianBlur>
            <feColorMatrix values="0 0 0 0 0   0 0 0 0 0   0 0 0 0 0  0 0 0 0.0950338724 0" type="matrix" in="shadowBlurOuter1"></feColorMatrix>
        </filter>
        <filter x="-14.1%" y="-28.9%" width="128.2%" height="157.8%" filterUnits="objectBoundingBox" id="filter-5">
            <feGaussianBlur stdDeviation="8" in="SourceGraphic"></feGaussianBlur>
        </filter>
        <rect id="path-6" x="45" y="55" width="200" height="80" rx="17.2800007"></rect>
        <filter x="-3.2%" y="-6.9%" width="106.5%" height="116.2%" filterUnits="objectBoundingBox" id="filter-7">
            <feOffset dx="0" dy="1" in="SourceAlpha" result="shadowOffsetOuter1"></feOffset>
            <feGaussianBlur stdDeviation="2" in="shadowOffsetOuter1" result="shadowBlurOuter1"></feGaussianBlur>
            <feColorMatrix values="0 0 0 0 0   0 0 0 0 0   0 0 0 0 0  0 0 0 0.0950338724 0" type="matrix" in="shadowBlurOuter1"></feColorMatrix>
        </filter>
        <circle id="path-8" cx="227" cy="144" r="23"></circle>
        <filter x="-26.1%" y="-19.6%" width="152.2%" height="152.2%" filterUnits="objectBoundingBox" id="filter-9">
            <feOffset dx="0" dy="3" in="SourceAlpha" result="shadowOffsetOuter1"></feOffset>
            <feGaussianBlur stdDeviation="3.5" in="shadowOffsetOuter1" result="shadowBlurOuter1"></feGaussianBlur>
            <feComposite in="shadowBlurOuter1" in2="SourceAlpha" operator="out" result="shadowBlurOuter1"></feComposite>
            <feColorMatrix values="0 0 0 0 0   0 0 0 0 0   0 0 0 0 0  0 0 0 0.0345826049 0" type="matrix" in="shadowBlurOuter1"></feColorMatrix>
        </filter>
    </defs>
    <g id="section-all-read-aqua" stroke="none" stroke-width="1" fill="none" fill-rule="evenodd">
        <g id="Rectangle">
            <use fill="black" fill-opacity="1" filter="url(#filter-2)" xlink:href="#path-1"></use>
            <use fill="#FFFFFF" fill-rule="evenodd" xlink:href="#path-1"></use>
        </g>
        <g id="Rectangle">
            <use fill="black" fill-opacity="1" filter="url(#filter-4)" xlink:href="#path-3"></use>
            <use fill="#FFFFFF" fill-rule="evenodd" xlink:href="#path-3"></use>
        </g>
        <rect id="Rectangle" fill-opacity="0.0850087413" fill="#000000" filter="url(#filter-5)" x="60" y="55" width="170" height="83"></rect>
        <g id="Rectangle">
            <use fill="black" fill-opacity="1" filter="url(#filter-7)" xlink:href="#path-6"></use>
            <use fill="#FFFFFF" fill-rule="evenodd" xlink:href="#path-6"></use>
        </g>
        <path d="M243,183.272727 C244.104569,183.272727 245,184.168158 245,185.272727 C245,186.377297 244.104569,187.272727 243,187.272727 C241.895431,187.272727 241,186.377297 241,185.272727 C241,184.168158 241.895431,183.272727 243,183.272727 Z M44,179.272727 C46.209139,179.272727 48,181.063588 48,183.272727 C48,185.481866 46.209139,187.272727 44,187.272727 C41.790861,187.272727 40,185.481866 40,183.272727 C40,181.063588 41.790861,179.272727 44,179.272727 Z M108.45,136.85 C110.79721,136.85 112.7,138.75279 112.7,141.1 L112.7,164.9 C112.7,167.24721 110.79721,169.15 108.45,169.15 L84.65,169.15 C82.3027898,169.15 80.4,167.24721 80.4,164.9 L80.4,141.1 C80.4,138.75279 82.3027898,136.85 84.65,136.85 L108.45,136.85 Z M143.111111,165.75 C144.049995,165.75 144.811111,166.511116 144.811111,167.45 C144.811111,168.388884 144.049995,169.15 143.111111,169.15 L128,169.15 C127.061116,169.15 126.3,168.388884 126.3,167.45 C126.3,166.511116 127.061116,165.75 128,165.75 L143.111111,165.75 Z M165.4,145.35 C166.808326,145.35 167.95,146.491674 167.95,147.9 C167.95,149.308326 166.808326,150.45 165.4,150.45 L128.85,150.45 C127.441674,150.45 126.3,149.308326 126.3,147.9 C126.3,146.491674 127.441674,145.35 128.85,145.35 L165.4,145.35 Z M207.05,136.85 C208.458326,136.85 209.6,137.991674 209.6,139.4 C209.6,140.808326 208.458326,141.95 207.05,141.95 L128.85,141.95 C127.441674,141.95 126.3,140.808326 126.3,139.4 C126.3,137.991674 127.441674,136.85 128.85,136.85 L207.05,136.85 Z M26,123.272727 C27.1045695,123.272727 28,124.168158 28,125.272727 C28,126.377297 27.1045695,127.272727 26,127.272727 C24.8954305,127.272727 24,126.377297 24,125.272727 C24,124.168158 24.8954305,123.272727 26,123.272727 Z M269.5,118.272727 C270.880712,118.272727 272,119.392015 272,120.772727 C272,122.153439 270.880712,123.272727 269.5,123.272727 C268.119288,123.272727 267,122.153439 267,120.772727 C267,119.392015 268.119288,118.272727 269.5,118.272727 Z M102,76 C104.761424,76 107,78.2385763 107,81 L107,109 C107,111.761424 104.761424,114 102,114 L74,114 C71.2385763,114 69,111.761424 69,109 L69,81 C69,78.2385763 71.2385763,76 74,76 L102,76 Z M142.777778,110 C143.882347,110 144.777778,110.89543 144.777778,112 C144.777778,113.104569 143.882347,114 142.777778,114 L125,114 C123.895431,114 123,113.104569 123,112 C123,110.89543 123.895431,110 125,110 L142.777778,110 Z M29.5,91.2727273 C32.5375661,91.2727273 35,93.7351612 35,96.7727273 C35,99.8102934 32.5375661,102.272727 29.5,102.272727 C26.4624339,102.272727 24,99.8102934 24,96.7727273 C24,93.7351612 26.4624339,91.2727273 29.5,91.2727273 Z M169,86 C170.656854,86 172,87.3431457 172,89 C172,90.6568542 170.656854,92 169,92 L126,92 C124.343146,92 123,90.6568542 123,89 C123,87.3431457 124.343146,86 126,86 L169,86 Z M218,76 C219.656854,76 221,77.3431457 221,79 C221,80.6568542 219.656854,82 218,82 L126,82 C124.343146,82 123,80.6568542 123,79 C123,77.3431457 124.343146,76 126,76 L218,76 Z M27.5,62.2727273 C28.8807119,62.2727273 30,63.3920154 30,64.7727273 C30,66.1534391 28.8807119,67.2727273 27.5,67.2727273 C26.1192881,67.2727273 25,66.1534391 25,64.7727273 C25,63.3920154 26.1192881,62.2727273 27.5,62.2727273 Z M279,49.2727273 C280.104569,49.2727273 281,50.1681578 281,51.2727273 C281,52.3772968 280.104569,53.2727273 279,53.2727273 C277.895431,53.2727273 277,52.3772968 277,51.2727273 C277,50.1681578 277.895431,49.2727273 279,49.2727273 Z M108.45,20.85 C110.79721,20.85 112.7,22.7527898 112.7,25.1 L112.7,48.9 C112.7,51.2472102 110.79721,53.15 108.45,53.15 L84.65,53.15 C82.3027898,53.15 80.4,51.2472102 80.4,48.9 L80.4,25.1 C80.4,22.7527898 82.3027898,20.85 84.65,20.85 L108.45,20.85 Z M143.111111,49.75 C144.049995,49.75 144.811111,50.5111159 144.811111,51.45 C144.811111,52.3888841 144.049995,53.15 143.111111,53.15 L128,53.15 C127.061116,53.15 126.3,52.3888841 126.3,51.45 C126.3,50.5111159 127.061116,49.75 128,49.75 L143.111111,49.75 Z M253,29.2727273 C255.209139,29.2727273 257,31.0635883 257,33.2727273 C257,35.4818663 255.209139,37.2727273 253,37.2727273 C250.790861,37.2727273 249,35.4818663 249,33.2727273 C249,31.0635883 250.790861,29.2727273 253,29.2727273 Z M165.4,29.35 C166.808326,29.35 167.95,30.4916739 167.95,31.9 C167.95,33.3083261 166.808326,34.45 165.4,34.45 L128.85,34.45 C127.441674,34.45 126.3,33.3083261 126.3,31.9 C126.3,30.4916739 127.441674,29.35 128.85,29.35 L165.4,29.35 Z M207.05,20.85 C208.458326,20.85 209.6,21.9916739 209.6,23.4 C209.6,24.8083261 208.458326,25.95 207.05,25.95 L128.85,25.95 C127.441674,25.95 126.3,24.8083261 126.3,23.4 C126.3,21.9916739 127.441674,20.85 128.85,20.85 L207.05,20.85 Z M54,9.27272727 C55.1045695,9.27272727 56,10.1681578 56,11.2727273 C56,12.3772968 55.1045695,13.2727273 54,13.2727273 C52.8954305,13.2727273 52,12.3772968 52,11.2727273 C52,10.1681578 52.8954305,9.27272727 54,9.27272727 Z" id="Combined-Shape" fill="#F1F2F5" style="mix-blend-mode: multiply;"></path>
        <path d="M102.992105,145.35 C103.659207,145.35 104.2,145.890793 104.2,146.557895 L104.2,159.442105 C104.2,160.109207 103.659207,160.65 102.992105,160.65 L90.1078947,160.65 C89.4407929,160.65 88.9,160.109207 88.9,159.442105 L88.9,146.557895 C88.9,145.890793 89.4407929,145.35 90.1078947,145.35 L102.992105,145.35 Z M96.0390605,154.876263 L92.92,158.234 L99.934,158.234 L96.0390605,154.876263 Z M101.784211,147.765789 L91.3157895,147.765789 L91.315,156.412 L95.0609152,152.379402 C95.4853551,151.922313 96.1839165,151.866177 96.6745267,152.237766 L96.734735,152.286444 L101.784,156.64 L101.784211,147.765789 Z M99.1671053,148.973684 C99.9453907,148.973684 100.576316,149.604609 100.576316,150.382895 C100.576316,151.16118 99.9453907,151.792105 99.1671053,151.792105 C98.3888198,151.792105 97.7578947,151.16118 97.7578947,150.382895 C97.7578947,149.604609 98.3888198,148.973684 99.1671053,148.973684 Z M42,142.272727 C44.209139,142.272727 46,144.063588 46,146.272727 C46,148.481866 44.209139,150.272727 42,150.272727 C39.790861,150.272727 38,148.481866 38,146.272727 C38,144.063588 39.790861,142.272727 42,142.272727 Z M281.5,132.272727 C282.880712,132.272727 284,133.392015 284,134.772727 C284,136.153439 282.880712,137.272727 281.5,137.272727 C280.119288,137.272727 279,136.153439 279,134.772727 C279,133.392015 280.119288,132.272727 281.5,132.272727 Z M95.5789474,86 C96.3637731,86 97,86.6362269 97,87.4210526 L97,102.578947 C97,103.363773 96.3637731,104 95.5789474,104 L80.4210526,104 C79.6362269,104 79,103.363773 79,102.578947 L79,87.4210526 C79,86.6362269 79.6362269,86 80.4210526,86 L95.5789474,86 Z M87.3988947,97.2073684 L83.73,101.157 L91.981,101.157 L87.3988947,97.2073684 Z M265,96.2727273 C266.104569,96.2727273 267,97.1681578 267,98.2727273 C267,99.3772968 266.104569,100.272727 265,100.272727 C263.895431,100.272727 263,99.3772968 263,98.2727273 C263,97.1681578 263.895431,96.2727273 265,96.2727273 Z M94.1578947,88.8421053 L81.8421053,88.8421053 L81.842,99.014 L86.2481356,94.2698853 C86.7474766,93.7321334 87.5693136,93.6660906 88.1465019,94.1032541 L88.2173353,94.1605227 L94.157,99.281 L94.1578947,88.8421053 Z M91.0789474,90.2631579 C91.9945773,90.2631579 92.7368421,91.0054227 92.7368421,91.9210526 C92.7368421,92.8366826 91.9945773,93.5789474 91.0789474,93.5789474 C90.1633174,93.5789474 89.4210526,92.8366826 89.4210526,91.9210526 C89.4210526,91.0054227 90.1633174,90.2631579 91.0789474,90.2631579 Z M8.5,82.2727273 C9.88071187,82.2727273 11,83.3920154 11,84.7727273 C11,86.1534391 9.88071187,87.2727273 8.5,87.2727273 C7.11928813,87.2727273 6,86.1534391 6,84.7727273 C6,83.3920154 7.11928813,82.2727273 8.5,82.2727273 Z M102.992105,29.35 C103.659207,29.35 104.2,29.8907929 104.2,30.5578947 L104.2,43.4421053 C104.2,44.1092071 103.659207,44.65 102.992105,44.65 L90.1078947,44.65 C89.4407929,44.65 88.9,44.1092071 88.9,43.4421053 L88.9,30.5578947 C88.9,29.8907929 89.4407929,29.35 90.1078947,29.35 L102.992105,29.35 Z M96.0390605,38.8762632 L92.92,42.234 L99.934,42.234 L96.0390605,38.8762632 Z M101.784211,31.7657895 L91.3157895,31.7657895 L91.315,40.412 L95.0609152,36.3794025 C95.4853551,35.9223134 96.1839165,35.866177 96.6745267,36.237766 L96.734735,36.2864443 L101.784,40.64 L101.784211,31.7657895 Z M99.1671053,32.9736842 C99.9453907,32.9736842 100.576316,33.6046093 100.576316,34.3828947 C100.576316,35.1611802 99.9453907,35.7921053 99.1671053,35.7921053 C98.3888198,35.7921053 97.7578947,35.1611802 97.7578947,34.3828947 C97.7578947,33.6046093 98.3888198,32.9736842 99.1671053,32.9736842 Z M29,26.2727273 C30.1045695,26.2727273 31,27.1681578 31,28.2727273 C31,29.3772968 30.1045695,30.2727273 29,30.2727273 C27.8954305,30.2727273 27,29.3772968 27,28.2727273 C27,27.1681578 27.8954305,26.2727273 29,26.2727273 Z M276.5,12.2727273 C277.328427,12.2727273 278,12.9443001 278,13.7727273 C278,14.6011544 277.328427,15.2727273 276.5,15.2727273 C275.671573,15.2727273 275,14.6011544 275,13.7727273 C275,12.9443001 275.671573,12.2727273 276.5,12.2727273 Z" id="Combined-Shape" fill="#DDE2E8"></path>
        <g id="Oval">
            <use fill="black" fill-opacity="1" filter="url(#filter-9)" xlink:href="#path-8"></use>
            <circle stroke="#5B93E1" stroke-width="2" stroke-linejoin="square" fill="#5B93E1" fill-rule="evenodd" cx="227" cy="144" r="22"></circle>
        </g>
        <g id="upgrade-feature-checkmark" transform="translate(213.000000, 131.000000)" fill="#FFFFFF" fill-rule="nonzero">
            <path d="M23.725,5.19984766 C24.3916562,5.69989063 24.5647695,6.61380078 24.1549648,7.31671484 L24.05,7.47484766 L14.3,20.4748477 C13.7437422,21.2165078 12.6925703,21.335082 11.987168,20.7708516 L11.8509219,20.648875 L5.35092187,14.148875 C4.71630859,13.5142617 4.71630859,12.4853828 5.35092187,11.8507695 C5.9401875,11.2615039 6.86943359,11.2194063 7.50729687,11.7244766 L7.64902734,11.8507695 L12.8245508,17.0245664 L21.45,5.52479688 C21.9499922,4.85808984 22.8639531,4.68502734 23.5668164,5.09483203 L23.725,5.19979688 L23.725,5.19984766 Z" id="Path"></path>
        </g>
    </g>
</svg>